# xmcd
# 
# Track frame offsets:
#     150
#     14262
#     30923
#     45899
#     60294
#     75381
#     88167
#     100857
#     117687
#     131153
#     147647
#     161347
#     176112
# 
# Disc length: 2595
# 
# Revision: 2
# Processed by: cddbd v1.5.2PL0 Copyright (c) Steve Scherf et al.
# Submitted via: fre:ac v1.0.31
# 
DISCID=a10a210d
DTITLE=Carly Pearce - Carly Pearce
DYEAR=2020
DGENRE=Country
TTITLE0=Closer To You
TTITLE1=Call Me
TTITLE2=I Hope You're Happy Now
TTITLE3=Dashboard Jesus
TTITLE4=Halfway Home
TTITLE5=Heart's Going Out Of Its Mind
TTITLE6=Finish Your Sentences
TTITLE7=It Won't Always Be Like This
TTITLE8=Lightning In A Bottle
TTITLE9=Love Has No Heart
TTITLE10=Woman Down
TTITLE11=You Kissed Me First
TTITLE12=Greener Grass
EXTD=
EXTT0=
EXTT1=
EXTT2=
EXTT3=
EXTT4=
EXTT5=
EXTT6=
EXTT7=
EXTT8=
EXTT9=
EXTT10=
EXTT11=
EXTT12=
PLAYORDER=
